<svg xmlns="http://www.w3.org/2000/svg" width="131" height="24" viewBox="0 0 131 24">
  <g id="Group_1286" data-name="Group 1286" transform="translate(-418 -21)">
    <text id="Online_Advertising_T" data-name="Online Advertising T" transform="translate(446 21)" fill="#0e113c" font-size="20" font-family="Gilroy-ExtraBold, Gilroy" font-weight="800"><tspan x="-51.15" y="19">GlobalPost</tspan></text>
    <g id="public-24px" transform="translate(418 21)">
      <path id="Path_2386" data-name="Path 2386" d="M0,0H24V24H0Z" fill="none"/>
      <path id="Path_2387" data-name="Path 2387" d="M12,2A10,10,0,1,0,22,12,10,10,0,0,0,12,2ZM11,19.93A7.988,7.988,0,0,1,4,12a8.118,8.118,0,0,1,.21-1.79L9,15v1a2.006,2.006,0,0,0,2,2Zm6.9-2.54A1.984,1.984,0,0,0,16,16H15V13a1,1,0,0,0-1-1H8V10h2a1,1,0,0,0,1-1V7h2a2.006,2.006,0,0,0,2-2V4.59a7.982,7.982,0,0,1,2.9,12.8Z" fill="#0e113c"/>
    </g>
  </g>
</svg>
